# xmcd
#
# Track frame offsets: 
#        150
#        19448
#        51892
#        78652
#        105521
#        121520
#        144496
#        195503
#        209770
#        225369
#
# Disc length: 3450 seconds
#
# Revision: 2
# Processed by: cddbd v1.5.2PL0 Copyright (c) Steve Scherf et al.
# Submitted via: ExactAudioCopyFreeDBPlugin 1.0
#
DISCID=820d780a
DTITLE=Trower, Robin - Dreaming The Blues
DYEAR=2003
DGENRE=Rock
TTITLE0=Alethea
TTITLE1=Daydream
TTITLE2=Too Rolling Stoned
TTITLE3=I Can't Wait Much Longer
TTITLE4=Day Of The Eagle
TTITLE5=A Little Bit Of Sympathy
TTITLE6=Bridge Of Sighs
TTITLE7=20th Century Blues
TTITLE8=Crossroads
TTITLE9=Extermination Blues
EXTD=
EXTT0=
EXTT1=
EXTT2=
EXTT3=
EXTT4=
EXTT5=
EXTT6=
EXTT7=
EXTT8=
EXTT9=
PLAYORDER=
